<?xml version="1.0" standalone="no"?>
<!DOCTYPE svg PUBLIC "-//W3C//DTD SVG 20010904//EN"
 "http://www.w3.org/TR/2001/REC-SVG-20010904/DTD/svg10.dtd">
<svg version="1.0" xmlns="http://www.w3.org/2000/svg"
 width="3078.000000pt" height="3078.000000pt" viewBox="0 0 3078.000000 3078.000000"
 preserveAspectRatio="xMidYMid meet">

<g transform="translate(0.000000,3078.000000) scale(0.100000,-0.100000)"
fill="#000000"  stroke="none">
<path d="M11958 24923 c-116 -4 -118 -4 -132 -31 -7 -15 -84 -207 -171 -427
-87 -220 -244 -620 -350 -890 -409 -1040 -1105 -2809 -1260 -3205 -90 -228
-267 -680 -395 -1005 -128 -324 -410 -1042 -627 -1595 -217 -553 -454 -1153
-525 -1335 -72 -181 -174 -442 -228 -580 -181 -462 -374 -952 -920 -2340
-1062 -2703 -1465 -3727 -1656 -4215 -107 -272 -200 -497 -205 -501 -12 -7
-473 -99 -649 -128 -263 -45 -499 -77 -788 -107 -200 -21 -803 -30 -999 -15
-589 45 -1005 191 -1272 446 -102 97 -156 172 -215 296 -142 294 -139 656 9
1104 188 570 597 1232 1232 1993 84 100 153 185 153 189 0 3 -55 -52 -123
-123 -1277 -1336 -2066 -2506 -2291 -3399 -51 -203 -60 -278 -60 -500 -1 -168
3 -227 17 -293 147 -665 717 -1028 1767 -1124 175 -16 738 -15 950 1 1003 76
2145 305 3455 695 321 95 1352 437 1690 559 631 230 1527 581 1848 726 38 17
73 31 79 31 25 0 1042 445 1378 603 1284 603 2536 1230 3435 1720 1744 949
3593 2069 5005 3031 1573 1071 2572 1818 3870 2895 1009 837 2088 1860 2761
2616 207 234 411 474 564 665 1168 1457 1598 2617 1240 3346 -229 468 -724
734 -1545 830 -185 21 -729 30 -990 15 -1158 -66 -2622 -387 -4340 -953 -508
-167 -1400 -486 -1424 -509 -6 -5 64 16 155 46 351 118 895 283 1269 384 1964
530 3440 612 4215 236 357 -174 557 -416 632 -767 24 -113 24 -376 -1 -508
-54 -293 -149 -554 -330 -906 -647 -1255 -2218 -2916 -4416 -4669 -386 -308
-655 -515 -667 -515 -6 0 -223 541 -483 1203 -911 2315 -1714 4358 -1975 5022
-530 1349 -717 1821 -739 1870 -13 28 -29 65 -36 82 l-12 33 -2722 0 c-1496 0
-2797 1 -2891 3 -93 2 -223 2 -287 0z m3159 -8055 c144 -354 503 -1235 798
-1958 358 -879 534 -1320 528 -1329 -9 -15 -381 -236 -865 -515 -167 -96 -364
-210 -438 -253 -223 -132 -581 -325 -1405 -758 -548 -289 -1390 -706 -1393
-691 -2 7 143 371 322 807 178 437 509 1249 736 1804 227 556 456 1118 510
1250 93 228 917 2246 927 2273 3 6 8 12 12 12 4 0 124 -289 268 -642z"/>
<path d="M29545 20639 c-690 -1057 -1794 -2265 -3265 -3574 -728 -647 -1383
-1189 -2344 -1936 -453 -352 -383 -300 -1096 -819 -964 -701 -1849 -1306
-2901 -1983 -1251 -804 -2635 -1629 -3929 -2342 -1761 -971 -2854 -1525 -4233
-2146 -751 -339 -1680 -733 -2364 -1005 -851 -337 -2133 -801 -2498 -902 -38
-11 -187 -56 -330 -100 -1107 -342 -2153 -587 -3035 -711 -597 -84 -1226 -119
-1614 -91 -72 5 -132 7 -135 5 -13 -14 142 -145 269 -227 341 -222 799 -347
1420 -389 355 -24 940 -2 1410 51 3014 344 7544 2084 12115 4653 541 304 786
447 894 524 57 40 111 73 120 73 12 0 121 -254 430 -1005 l414 -1005 2885 0
2884 0 -6 24 c-3 14 -63 168 -132 343 -69 175 -222 561 -339 858 -268 679
-593 1501 -1100 2785 -219 553 -400 1012 -402 1021 -3 12 93 89 354 284 1761
1318 3191 2562 4338 3775 1448 1532 2274 2906 2312 3848 5 120 4 142 -9 142
-8 0 -58 -68 -113 -151z"/>
</g>
</svg>
